# xmcd CD database file
#
# Track frame offsets:
#	150
#	13085
#	22432
#	32597
#	45150
#	57397
#	70097
#	82442
#	94407
#	106747
#	120965
#	132617
#	144785
#	157482
#	166820
#	178477
#	189840
#	203415
#	215532
#	232117
#	243967
#	257407
#	271232
#	282552
#	300950
#
# Disc length: 4163 seconds
#
# Revision: 1
# Processed by: cddbd v1.5.1PL2 Copyright (c) Steve Scherf et al.
# Submitted via: CDex 1.51
#
DISCID=66104119
DTITLE=Various Artist - Country 100:Vol. 4
DYEAR=1990
DGENRE=Country
TTITLE0=Hank Williams - Jambalaya
TTITLE1=Roger Miller - Chug-A-Lug
TTITLE2=Ned Miller - From A Jack To A King
TTITLE3=Conway Twitty - I've Already Loved You In My Mind
TTITLE4=Hank Williams - Half As Much
TTITLE5=Kitty Wells - Making Believe
TTITLE6=Roy Drusky - Three Hearts In A Tangle
TTITLE7=Gene Watson - Fourteen Carat Mind
TTITLE8=Hank Williams - Cold, Cold Heart
TTITLE9=Slim Whitman - Indian Love Call
TTITLE10=Patsy Cline - Sweet Dreams (Of You)
TTITLE11=Glen Campbell - Galveston
TTITLE12=Mel Tillis - Woman In The Back Of My Mind
TTITLE13=Webb Pierce - In The Jailhouse Now
TTITLE14=Crystal Gayle - Don't Make My Brown Eyes Blue
TTITLE15=Sonny James - Young Love
TTITLE16=Conway Twitty - You've Never Been This Far Before
TTITLE17=Del Reeves - Girl On A Billboard
TTITLE18=Freddy Fender - Secret Love
TTITLE19=Loretta Lynn - The Pill
TTITLE20=Bobby Helms - My Special Angel
TTITLE21=Steve Wariner - Lynda
TTITLE22=Wynn Stewart - It's Such a Pretty World Today
TTITLE23=Juice Newton - The Sweetest Thing
TTITLE24=Freddy Fender - Before The Next Teardrop Falls
EXTD=YEAR: 1990
EXTT0=
EXTT1=
EXTT2=
EXTT3=
EXTT4=
EXTT5=
EXTT6=
EXTT7=
EXTT8=
EXTT9=
EXTT10=
EXTT11=
EXTT12=
EXTT13=
EXTT14=
EXTT15=
EXTT16=
EXTT17=
EXTT18=
EXTT19=
EXTT20=
EXTT21=
EXTT22=
EXTT23=
EXTT24=
PLAYORDER=
